<?xml version="1.0" standalone="no"?>
<!DOCTYPE svg PUBLIC "-//W3C//DTD SVG 20010904//EN"
 "http://www.w3.org/TR/2001/REC-SVG-20010904/DTD/svg10.dtd">
<svg version="1.0" xmlns="http://www.w3.org/2000/svg"
 width="70.000000pt" height="70.000000pt" viewBox="0 0 70.000000 70.000000"
 preserveAspectRatio="xMidYMid meet">
<metadata>
Created by potrace 1.11, written by Peter Selinger 2001-2013
</metadata>
<g transform="translate(0.000000,70.000000) scale(0.100000,-0.100000)"
fill="#000000" stroke="none">
<path d="M0 614 c0 -75 2 -85 15 -74 8 7 17 27 21 45 11 59 42 78 139 83 55 3
89 9 96 18 10 12 -11 14 -130 14 l-141 0 0 -86z"/>
<path d="M429 686 c7 -9 41 -15 96 -18 97 -5 130 -25 141 -84 3 -18 12 -38 20
-45 12 -10 14 2 14 75 l0 86 -141 0 c-119 0 -140 -2 -130 -14z"/>
<path d="M323 624 c-14 -28 -15 -39 -5 -54 7 -11 12 -40 12 -64 0 -44 -9 -56
-66 -89 -17 -10 -94 50 -94 72 0 21 -19 31 -56 31 -16 0 -24 -6 -24 -18 0 -31
30 -62 91 -92 77 -39 79 -64 13 -115 -26 -19 -53 -35 -60 -35 -16 0 -44 -39
-44 -62 0 -12 8 -18 24 -18 35 0 56 10 56 27 0 14 42 58 71 73 11 6 27 1 52
-16 33 -22 37 -29 37 -69 0 -25 -5 -54 -12 -65 -10 -15 -9 -26 5 -54 21 -44
32 -45 53 -4 13 25 14 38 5 68 -6 21 -11 49 -11 62 0 31 45 78 74 78 25 0 86
-52 86 -73 0 -17 21 -27 56 -27 16 0 24 6 24 18 0 23 -28 62 -44 62 -7 0 -34
16 -60 35 -66 51 -64 76 13 115 61 30 91 61 91 92 0 12 -8 18 -24 18 -37 0
-56 -10 -56 -31 0 -11 -18 -32 -42 -49 l-41 -30 -31 19 c-43 27 -53 59 -37
120 11 42 10 54 -4 80 -20 40 -31 39 -52 -5z m72 -203 c17 -10 37 -30 45 -44
13 -24 13 -30 0 -54 -8 -15 -32 -36 -53 -47 -37 -19 -37 -19 -74 0 -21 11 -45
32 -53 47 -13 24 -13 30 0 54 16 28 65 62 90 62 8 0 29 -8 45 -18z"/>
<path d="M220 528 c0 -26 26 -52 44 -45 29 11 16 51 -16 55 -19 2 -28 -1 -28
-10z"/>
<path d="M427 533 c-13 -12 -7 -44 9 -50 18 -7 44 20 44 44 0 13 -41 18 -53 6z"/>
<path d="M0 343 c1 -115 2 -126 15 -109 15 20 22 186 9 220 -16 42 -24 5 -24
-111z"/>
<path d="M676 454 c-13 -34 -6 -200 9 -220 13 -17 14 -6 15 109 0 116 -8 153
-24 111z"/>
<path d="M137 364 c-18 -19 -5 -34 29 -34 28 0 35 3 32 18 -3 17 -48 29 -61
16z"/>
<path d="M507 364 c-18 -19 -5 -34 29 -34 28 0 35 3 32 18 -3 17 -48 29 -61
16z"/>
<path d="M231 201 c-18 -32 -13 -43 17 -39 21 2 27 8 27 28 0 31 -30 39 -44
11z"/>
<path d="M424 205 c-10 -25 4 -45 31 -45 27 0 31 10 15 41 -13 23 -38 25 -46
4z"/>
<path d="M0 86 l0 -86 141 0 c120 0 140 2 130 14 -8 9 -40 15 -96 17 -71 3
-87 7 -108 27 -14 13 -28 39 -31 57 -4 18 -13 38 -21 45 -13 11 -15 1 -15 -74z"/>
<path d="M682 158 c-5 -7 -13 -27 -16 -44 -4 -17 -18 -42 -32 -55 -22 -21 -38
-25 -109 -28 -56 -2 -88 -8 -96 -17 -10 -12 10 -14 130 -14 l141 0 0 85 c0 47
-2 85 -4 85 -2 0 -8 -6 -14 -12z"/>
</g>
</svg>
